<svg xmlns="http://www.w3.org/2000/svg" viewBox="0 0 110 28" height="20">
  <!-- Lotus flower icon: Padmasambhava = "Lotus-Born" -->
  <!-- Top petal -->
  <path d="M14 2 Q18 7 16 13 L14 14 L12 13 Q10 7 14 2 Z" fill="#6a4a8c"/>
  <!-- Upper-left petal -->
  <path d="M5 7 Q10 6 13 12 L14 14 L11 13 Q7 10 5 7 Z" fill="#6a4a8c"/>
  <!-- Upper-right petal -->
  <path d="M23 7 Q18 6 15 12 L14 14 L17 13 Q21 10 23 7 Z" fill="#6a4a8c"/>
  <!-- Left petal -->
  <path d="M2 15 Q7 11 12 14 L14 14 L12 16 Q6 17 2 15 Z" fill="#4e306a"/>
  <!-- Right petal -->
  <path d="M26 15 Q21 11 16 14 L14 14 L16 16 Q22 17 26 15 Z" fill="#4e306a"/>
  <!-- Lower-left petal -->
  <path d="M6 23 Q9 18 13 15 L14 14 L13 17 Q10 21 6 23 Z" fill="#4e306a"/>
  <!-- Lower-right petal -->
  <path d="M22 23 Q19 18 15 15 L14 14 L15 17 Q18 21 22 23 Z" fill="#4e306a"/>
  <!-- Center -->
  <circle cx="14" cy="14" r="3.5" fill="#f0eef2"/>
  <circle cx="14" cy="14" r="2" fill="#4e306a"/>
  <!-- Text -->
  <text x="32" y="20" font-family="'Noto Serif SC', 'Source Han Serif CN', 'SimSun', Georgia, serif" font-size="18" font-weight="bold" fill="#4e306a" letter-spacing="2">莲师预言</text>
</svg>
