<svg xmlns="http://www.w3.org/2000/svg" viewBox="0 0 138 28" height="20">
  <!-- Wave icon: three cresting waves using M/L polylines -->
  <!-- Top wave (small, thin) -->
  <path d="M5 10 L7 8 L9 6.5 L11 6 L13 7 L15 9 L17 7 L19 5 L21 4.5 L23 5.5 L25 8" stroke="#6a7a2e" stroke-width="1.4" fill="none" stroke-linecap="round"/>
  <!-- Middle wave (main, bold) -->
  <path d="M2 18 L4 16 L6 14 L8 13 L10 14 L12 16 L14 18 L16 16 L18 14 L20 12 L22 11 L24 12 L26 14" stroke="#6a7a2e" stroke-width="2.5" fill="none" stroke-linecap="round"/>
  <!-- Bottom wave (small, dark) -->
  <path d="M4 24 L6 22.5 L8 21.5 L10 21 L12 22 L14 23 L16 22 L18 20.5 L20 19.5 L22 19 L24 20" stroke="#4e5c18" stroke-width="1.8" fill="none" stroke-linecap="round"/>
  <!-- Text -->
  <text x="32" y="20" font-family="Georgia, 'Times New Roman', serif" font-size="17" font-weight="bold" fill="#4e5c18" letter-spacing="0.5">TOFFLER</text>
</svg>
