<svg xmlns="http://www.w3.org/2000/svg" viewBox="0 0 168 28" height="20">
  <!-- Rocket icon -->
  <path d="M14 2 C14 2 8 10 8 18 C8 22 10.5 25 14 25 C17.5 25 20 22 20 18 C20 10 14 2 14 2 Z" fill="#8c5070"/>
  <path d="M14 4 C14 4 10 10.5 10 17.5 C10 20.5 11.5 23 14 23 C16.5 23 18 20.5 18 17.5 C18 10.5 14 4 14 4 Z" fill="#f0f2f4"/>
  <circle cx="14" cy="16" r="2.5" fill="#6a3450"/>
  <path d="M8 18 L5 22 L8.5 20.5 Z" fill="#8c5070"/>
  <path d="M20 18 L23 22 L19.5 20.5 Z" fill="#8c5070"/>
  <path d="M11.5 24 L14 27 L16.5 24 C15.8 25 12.2 25 11.5 24 Z" fill="#6a3450"/>
  <!-- Text -->
  <text x="32" y="20" font-family="Georgia, 'Times New Roman', serif" font-size="17" font-weight="bold" fill="#6a3450" letter-spacing="0.5">ELON MUSK</text>
</svg>
