<svg xmlns="http://www.w3.org/2000/svg" viewBox="0 0 150 28" height="20">
  <!-- Open Bible icon -->
  <!-- Book spine -->
  <line x1="14" y1="4" x2="14" y2="24" stroke="#4e3e34" stroke-width="1.5"/>
  <!-- Left page -->
  <path d="M13 5 Q8 4 3 6 L3 22 Q8 20 13 21 Z" fill="#f2f0ee" stroke="#4e3e34" stroke-width="1.2"/>
  <!-- Right page -->
  <path d="M15 5 Q20 4 25 6 L25 22 Q20 20 15 21 Z" fill="#f2f0ee" stroke="#4e3e34" stroke-width="1.2"/>
  <!-- Left page lines -->
  <line x1="6" y1="9" x2="12" y2="8" stroke="#6a5a50" stroke-width="0.6"/>
  <line x1="6" y1="12" x2="12" y2="11" stroke="#6a5a50" stroke-width="0.6"/>
  <line x1="6" y1="15" x2="12" y2="14.5" stroke="#6a5a50" stroke-width="0.6"/>
  <line x1="6" y1="18" x2="12" y2="17.5" stroke="#6a5a50" stroke-width="0.6"/>
  <!-- Right page lines -->
  <line x1="16" y1="8" x2="22" y2="9" stroke="#6a5a50" stroke-width="0.6"/>
  <line x1="16" y1="11" x2="22" y2="12" stroke="#6a5a50" stroke-width="0.6"/>
  <line x1="16" y1="14.5" x2="22" y2="15" stroke="#6a5a50" stroke-width="0.6"/>
  <line x1="16" y1="17.5" x2="22" y2="18" stroke="#6a5a50" stroke-width="0.6"/>
  <!-- Text -->
  <text x="32" y="20" font-family="Georgia, 'Times New Roman', serif" font-size="17" font-weight="bold" fill="#4e3e34" letter-spacing="0.5">W. MILLER</text>
</svg>
